<?xml version="1.0" encoding="UTF-8" standalone="no"?>
<!DOCTYPE svg PUBLIC "-//W3C//DTD SVG 1.1//EN" "http://www.w3.org/Graphics/SVG/1.1/DTD/svg11.dtd">
<svg width="100%" height="100%" viewBox="0 0 410 64" version="1.1" xmlns="http://www.w3.org/2000/svg" xmlns:xlink="http://www.w3.org/1999/xlink" xml:space="preserve" xmlns:serif="http://www.serif.com/" style="fill-rule:evenodd;clip-rule:evenodd;stroke-linejoin:round;stroke-miterlimit:2;">
    <g transform="matrix(1,0,0,1,89.7984,10.6638)">
        <path d="M19.65,40.6C24.45,40.6 28.4,38.7 31.45,35.15L27.55,30.55C25.55,32.7 23.1,34.2 19.9,34.2C14.05,34.2 10.25,29.35 10.25,21.3C10.25,13.35 14.45,8.55 20.05,8.55C22.85,8.55 25,9.85 26.9,11.65L30.75,6.95C28.35,4.45 24.6,2.2 19.9,2.2C10.55,2.2 2.7,9.35 2.7,21.55C2.7,33.9 10.3,40.6 19.65,40.6Z" style="fill:rgb(35,31,32);fill-rule:nonzero;"/>
        <g transform="matrix(1,0,0,1,12.275,0)">
            <path d="M50.15,40.6C59.95,40.6 66.7,33.25 66.7,21.25C66.7,9.25 59.95,2.2 50.15,2.2C40.35,2.2 33.6,9.2 33.6,21.25C33.6,33.25 40.35,40.6 50.15,40.6ZM50.15,34.2C44.65,34.2 41.15,29.15 41.15,21.25C41.15,13.3 44.65,8.55 50.15,8.55C55.65,8.55 59.15,13.3 59.15,21.25C59.15,29.15 55.65,34.2 50.15,34.2Z" style="fill:rgb(35,31,32);fill-rule:nonzero;"/>
        </g>
        <g transform="matrix(1,0,0,1,21.3,0)">
            <path d="M89.85,40.6C95,40.6 99.35,38.6 101.85,36.15L101.85,19.45L88.7,19.45L88.7,25.5L95.25,25.5L95.25,32.8C94.2,33.7 92.4,34.2 90.65,34.2C83.35,34.2 79.65,29.35 79.65,21.3C79.65,13.35 83.95,8.55 90.1,8.55C93.45,8.55 95.55,9.9 97.4,11.65L101.3,6.95C98.9,4.5 95.2,2.2 89.85,2.2C80,2.2 72.1,9.35 72.1,21.55C72.1,33.9 79.8,40.6 89.85,40.6Z" style="fill:rgb(35,31,32);fill-rule:nonzero;"/>
        </g>
        <g transform="matrix(1,0,0,1,32.775,0)">
            <path d="M109.8,39.9L116.8,39.9L116.8,25.05C116.8,20.8 116.25,16.15 115.9,12.15L116.15,12.15L119.9,20.1L130.6,39.9L138.1,39.9L138.1,2.85L131.1,2.85L131.1,17.65C131.1,21.85 131.7,26.75 132.05,30.6L131.8,30.6L128.1,22.6L117.35,2.85L109.8,2.85L109.8,39.9Z" style="fill:rgb(35,31,32);fill-rule:nonzero;"/>
        </g>
        <g transform="matrix(1,0,0,1,45.8,0)">
            <path d="M155.3,20.6C156.4,16.75 157.5,12.55 158.45,8.5L158.7,8.5C159.75,12.5 160.75,16.75 161.9,20.6L163,24.65L154.2,24.65L155.3,20.6ZM142.5,39.9L150,39.9L152.6,30.4L164.6,30.4L167.2,39.9L174.95,39.9L163.05,2.85L154.35,2.85L142.5,39.9Z" style="fill:rgb(35,31,32);fill-rule:nonzero;"/>
        </g>
        <g transform="matrix(1,0,0,1,57.875,0)">
            <path d="M179.3,39.9L186.3,39.9L186.3,25.05C186.3,20.8 185.75,16.15 185.4,12.15L185.65,12.15L189.4,20.1L200.1,39.9L207.6,39.9L207.6,2.85L200.6,2.85L200.6,17.65C200.6,21.85 201.2,26.75 201.55,30.6L201.3,30.6L197.6,22.6L186.85,2.85L179.3,2.85L179.3,39.9Z" style="fill:rgb(35,31,32);fill-rule:nonzero;"/>
        </g>
        <g transform="matrix(1,0,0,1,67,0)">
            <path d="M231.45,40.6C241.25,40.6 248,33.25 248,21.25C248,9.25 241.25,2.2 231.45,2.2C221.65,2.2 214.9,9.2 214.9,21.25C214.9,33.25 221.65,40.6 231.45,40.6ZM231.45,34.2C225.95,34.2 222.45,29.15 222.45,21.25C222.45,13.3 225.95,8.55 231.45,8.55C236.95,8.55 240.45,13.3 240.45,21.25C240.45,29.15 236.95,34.2 231.45,34.2Z" style="fill:rgb(35,31,32);fill-rule:nonzero;"/>
        </g>
    </g>
    <g id="integrated" transform="matrix(6.35379e-05,-0.0963421,0.0963421,6.35379e-05,0.732944,65.9438)">
        <path d="M247.779,621.895C235.631,630.369 220.862,635.341 204.94,635.341C163.545,635.341 129.938,601.733 129.938,560.339C129.938,552.704 131.081,545.334 133.206,538.391C140.131,515.76 157.481,497.664 179.647,489.715C187.55,486.881 196.066,485.336 204.94,485.336C246.335,485.336 279.943,518.944 279.943,560.339C279.943,561.143 279.93,561.945 279.905,562.744C279.132,587.227 266.602,608.765 247.779,621.895ZM568.471,353.166C537.341,344.038 514.581,315.246 514.581,281.181C514.581,263.939 520.412,248.049 530.207,235.375C543.928,217.62 565.43,206.179 589.583,206.179C589.999,206.179 590.414,206.182 590.829,206.189C631.65,206.855 664.586,240.202 664.586,281.181C664.586,305.658 652.835,327.413 634.671,341.106C622.118,350.57 606.501,356.183 589.583,356.183C582.254,356.183 575.168,355.13 568.471,353.166ZM423.818,562.767C423.792,561.961 423.779,561.151 423.779,560.339C423.779,518.944 457.387,485.336 498.782,485.336C507.675,485.336 516.209,486.887 524.127,489.734C546.287,497.7 563.627,515.809 570.534,538.45C572.647,545.375 573.784,552.725 573.784,560.339C573.784,601.733 540.176,635.341 498.782,635.341C482.871,635.341 468.111,630.376 455.967,621.912C437.137,608.788 424.598,587.251 423.818,562.767ZM290.087,150.696C281.742,138.606 276.853,123.951 276.853,108.163C276.853,99.743 278.244,91.645 280.807,84.087C290.848,54.487 318.881,33.161 351.855,33.161C384.822,33.161 412.85,54.476 422.896,84.065C425.465,91.63 426.858,99.735 426.858,108.163C426.858,123.943 421.974,138.591 413.638,150.677C400.104,170.297 377.471,183.166 351.855,183.166C326.248,183.166 303.621,170.305 290.087,150.696ZM69.113,341.171C50.9,327.482 39.112,305.697 39.112,281.181C39.112,240.171 72.097,206.805 112.961,206.187C113.345,206.182 113.729,206.179 114.114,206.179C138.296,206.179 159.819,217.647 173.539,235.437C183.305,248.1 189.117,263.967 189.117,281.181C189.117,315.213 166.401,343.982 135.318,353.139C128.594,355.12 121.477,356.183 114.114,356.183C97.236,356.183 81.652,350.596 69.113,341.171ZM113.216,510.961C87.805,471.318 71.997,424.94 69.086,375.123C82.718,381.675 97.991,385.346 114.114,385.346C121.845,385.346 129.38,384.502 136.632,382.901C139.965,412.423 149.241,440.155 163.234,464.872C141.867,474.229 124.235,490.551 113.216,510.961ZM511.642,212.104C492.062,190.734 468.254,173.299 441.55,161.129C450.742,145.606 456.021,127.496 456.021,108.163C456.021,103.535 455.718,98.977 455.132,94.507C500.599,112.33 540.355,141.572 570.862,178.697C547.472,182.949 526.795,195.022 511.642,212.104ZM634.705,375.078C631.8,424.936 615.976,471.35 590.536,511.017C579.528,490.598 561.903,474.264 540.541,464.895C554.538,440.178 563.818,412.444 567.154,382.921C574.379,384.509 581.884,385.346 589.583,385.346C605.744,385.346 621.05,381.658 634.705,375.078ZM262.178,161.157C235.477,173.335 211.675,190.778 192.1,212.155C176.96,195.065 156.295,182.98 132.915,178.711C163.405,141.602 203.136,112.368 248.575,94.539C247.991,98.999 247.69,103.546 247.69,108.163C247.69,127.508 252.975,145.628 262.178,161.157Z"/>
    </g>
</svg>
